HIERARCHY
ROOT Hips
{
	OFFSET 0 0 0
	CHANNELS 6 Xposition Yposition Zposition Yrotation Xrotation Zrotation
	JOINT Spine
	{
		OFFSET -0 7.96124 -2.53765
		CHANNELS 3 Yrotation Xrotation Zrotation
		JOINT Spine1
		{
			OFFSET -0 8.14037 0
			CHANNELS 3 Yrotation Xrotation Zrotation
			JOINT Spine2
			{
				OFFSET -0 8.14037 0
				CHANNELS 3 Yrotation Xrotation Zrotation
				JOINT Spine3
				{
					OFFSET -0 8.14037 0
					CHANNELS 3 Yrotation Xrotation Zrotation
					JOINT Neck
					{
						OFFSET -0 14.0192 3.53765
						CHANNELS 3 Yrotation Xrotation Zrotation
						JOINT Head
						{
							OFFSET -0 9.95155 0
							CHANNELS 3 Yrotation Xrotation Zrotation
							End Site
							{
								OFFSET 0 15 0
							}
						}
					}
					JOINT LeftShoulder
					{
						OFFSET 1.65859 2.44779 3.31718
						CHANNELS 3 Yrotation Xrotation Zrotation
						JOINT LeftArm
						{
							OFFSET 18.8215 0 0
							CHANNELS 3 Yrotation Xrotation Zrotation
							JOINT LeftForeArm
							{
								OFFSET 24.369 0 0
								CHANNELS 3 Yrotation Xrotation Zrotation
								JOINT LeftHand
								{
									OFFSET 20.693 0 0
									CHANNELS 3 Yrotation Xrotation Zrotation
									JOINT LeftHandThumb1
									{
										OFFSET 4.77279 0 2.93781
										CHANNELS 3 Yrotation Xrotation Zrotation
										JOINT LeftHandThumb2
										{
											OFFSET 3 0 1
											CHANNELS 3 Yrotation Xrotation Zrotation
											JOINT LeftHandThumb3
											{
												OFFSET 2.1 0 0
												CHANNELS 3 Yrotation Xrotation Zrotation
												JOINT LeftHandThumb4
												{
													OFFSET 1.305 0 0
													CHANNELS 3 Yrotation Xrotation Zrotation
													End Site
													{
														OFFSET -0 0 0
													}
												}
											}
										}
									}
									JOINT LeftHandIndex1
									{
										OFFSET 8.85787 0 3.70426
										CHANNELS 3 Yrotation Xrotation Zrotation
										JOINT LeftHandIndex2
										{
											OFFSET 3.5 0 0
											CHANNELS 3 Yrotation Xrotation Zrotation
											JOINT LeftHandIndex3
											{
												OFFSET 2.45 0 0
												CHANNELS 3 Yrotation Xrotation Zrotation
												JOINT LeftHandIndex4
												{
													OFFSET 1.5225 0 0
													CHANNELS 3 Yrotation Xrotation Zrotation
													End Site
													{
														OFFSET -0 0 0
													}
												}
											}
										}
									}
									JOINT LeftHandMiddle1
									{
										OFFSET 8.9513 0 1.15177
										CHANNELS 3 Yrotation Xrotation Zrotation
										JOINT LeftHandMiddle2
										{
											OFFSET 4.6 0 0
											CHANNELS 3 Yrotation Xrotation Zrotation
											JOINT LeftHandMiddle3
											{
												OFFSET 3.22 0 0
												CHANNELS 3 Yrotation Xrotation Zrotation
												JOINT LeftHandMiddle4
												{
													OFFSET 2.001 0 0
													CHANNELS 3 Yrotation Xrotation Zrotation
													End Site
													{
														OFFSET -0 0 0
													}
												}
											}
										}
									}
									JOINT LeftHandRing1
									{
										OFFSET 8.74474 0 -1.40072
										CHANNELS 3 Yrotation Xrotation Zrotation
										JOINT LeftHandRing2
										{
											OFFSET 3.75 0 0
											CHANNELS 3 Yrotation Xrotation Zrotation
											JOINT LeftHandRing3
											{
												OFFSET 2.625 0 0
												CHANNELS 3 Yrotation Xrotation Zrotation
												JOINT LeftHandRing4
												{
													OFFSET 1.63125 0 0
													CHANNELS 3 Yrotation Xrotation Zrotation
													End Site
													{
														OFFSET -0 0 0
													}
												}
											}
										}
									}
									JOINT LeftHandPinky1
									{
										OFFSET 8.23817 0 -3.95321
										CHANNELS 3 Yrotation Xrotation Zrotation
										JOINT LeftHandPinky2
										{
											OFFSET 2.875 0 0
											CHANNELS 3 Yrotation Xrotation Zrotation
											JOINT LeftHandPinky3
											{
												OFFSET 2.0125 0 0
												CHANNELS 3 Yrotation Xrotation Zrotation
												JOINT LeftHandPinky4
												{
													OFFSET 1.25062 0 0
													CHANNELS 3 Yrotation Xrotation Zrotation
													End Site
													{
														OFFSET -0 0 0
													}
												}
											}
										}
									}
								}
							}
						}
					}
					JOINT RightShoulder
					{
						OFFSET -1.65859 2.44779 3.31718
						CHANNELS 3 Yrotation Xrotation Zrotation
						JOINT RightArm
						{
							OFFSET -18.8215 0 0
							CHANNELS 3 Yrotation Xrotation Zrotation
							JOINT RightForeArm
							{
								OFFSET -24.369 0 0
								CHANNELS 3 Yrotation Xrotation Zrotation
								JOINT RightHand
								{
									OFFSET -20.693 0 0
									CHANNELS 3 Yrotation Xrotation Zrotation
									JOINT RightHandThumb1
									{
										OFFSET -4.49526 0 1.86793
										CHANNELS 3 Yrotation Xrotation Zrotation
										JOINT RightHandThumb2
										{
											OFFSET -3 0 1
											CHANNELS 3 Yrotation Xrotation Zrotation
											JOINT RightHandThumb3
											{
												OFFSET -2.1 0 0
												CHANNELS 3 Yrotation Xrotation Zrotation
												JOINT RightHandThumb4
												{
													OFFSET -1.305 0 0
													CHANNELS 3 Yrotation Xrotation Zrotation
													End Site
													{
														OFFSET -0 0 0
													}
												}
											}
										}
									}
									JOINT RightHandIndex1
									{
										OFFSET -9.23757 0 2.80764
										CHANNELS 3 Yrotation Xrotation Zrotation
										JOINT RightHandIndex2
										{
											OFFSET -3.5 0 0
											CHANNELS 3 Yrotation Xrotation Zrotation
											JOINT RightHandIndex3
											{
												OFFSET -2.45 0 0
												CHANNELS 3 Yrotation Xrotation Zrotation
												JOINT RightHandIndex4
												{
													OFFSET -1.5225 0 0
													CHANNELS 3 Yrotation Xrotation Zrotation
													End Site
													{
														OFFSET -0 0 0
													}
												}
											}
										}
									}
									JOINT RightHandMiddle1
									{
										OFFSET -8.70766 0 0.787911
										CHANNELS 3 Yrotation Xrotation Zrotation
										JOINT RightHandMiddle2
										{
											OFFSET -4.6 0 0
											CHANNELS 3 Yrotation Xrotation Zrotation
											JOINT RightHandMiddle3
											{
												OFFSET -3.22 0 0
												CHANNELS 3 Yrotation Xrotation Zrotation
												JOINT RightHandMiddle4
												{
													OFFSET -2.001 0 0
													CHANNELS 3 Yrotation Xrotation Zrotation
													End Site
													{
														OFFSET -0 0 0
													}
												}
											}
										}
									}
									JOINT RightHandRing1
									{
										OFFSET -7.87775 0 -1.23182
										CHANNELS 3 Yrotation Xrotation Zrotation
										JOINT RightHandRing2
										{
											OFFSET -3.75 0 0
											CHANNELS 3 Yrotation Xrotation Zrotation
											JOINT RightHandRing3
											{
												OFFSET -2.625 0 0
												CHANNELS 3 Yrotation Xrotation Zrotation
												JOINT RightHandRing4
												{
													OFFSET -1.63125 0 0
													CHANNELS 3 Yrotation Xrotation Zrotation
													End Site
													{
														OFFSET -0 0 0
													}
												}
											}
										}
									}
									JOINT RightHandPinky1
									{
										OFFSET -6.74784 0 -3.25155
										CHANNELS 3 Yrotation Xrotation Zrotation
										JOINT RightHandPinky2
										{
											OFFSET -2.875 0 0
											CHANNELS 3 Yrotation Xrotation Zrotation
											JOINT RightHandPinky3
											{
												OFFSET -2.0125 0 0
												CHANNELS 3 Yrotation Xrotation Zrotation
												JOINT RightHandPinky4
												{
													OFFSET -1.25062 0 0
													CHANNELS 3 Yrotation Xrotation Zrotation
													End Site
													{
														OFFSET -0 0 0
													}
												}
											}
										}
									}
								}
							}
						}
					}
				}
			}
		}
	}
	JOINT LeftUpLeg
	{
		OFFSET 9.95155 -3.31718 3
		CHANNELS 3 Yrotation Xrotation Zrotation
		JOINT LeftLeg
		{
			OFFSET -0 -43.2932 2.32203
			CHANNELS 3 Yrotation Xrotation Zrotation
			JOINT LeftFoot
			{
				OFFSET -0 -34.5003 -2.32203
				CHANNELS 3 Yrotation Xrotation Zrotation
				JOINT LeftToeBase
				{
					OFFSET -0 -8.48975 8.93072
					CHANNELS 3 Yrotation Xrotation Zrotation
					End Site
					{
						OFFSET 0 0 5
					}
				}
			}
		}
	}
	JOINT RightUpLeg
	{
		OFFSET -9.95155 -3.31718 3
		CHANNELS 3 Yrotation Xrotation Zrotation
		JOINT RightLeg
		{
			OFFSET -0 -43.2932 2.32203
			CHANNELS 3 Yrotation Xrotation Zrotation
			JOINT RightFoot
			{
				OFFSET -0 -34.5003 -2.32203
				CHANNELS 3 Yrotation Xrotation Zrotation
				JOINT RightToeBase
				{
					OFFSET -0 -8.48975 8.93072
					CHANNELS 3 Yrotation Xrotation Zrotation
					End Site
					{
						OFFSET 0 0 5
					}
				}
			}
		}
	}
}
MOTION
Frames: 6
Frame Time: 0.0047619
0 90.430801 0 0 0 0 0 0 0 0 0 0 0 0 0 0 0 0 0 0 0 0 0 0 0 0 0 0 0 0 0 0 0 0 0 0 0 0 0 0 0 0 0 0 0 0 0 0 0 0 0 0 0 0 0 0 0 0 0 0 0 0 0 0 0 0 0 0 0 0 0 0 0 0 0 0 0 0 0 0 0 0 0 0 0 0 0 0 0 0 0 0 0 0 0 0 0 0 0 0 0 0 0 0 0 0 0 0 0 0 0 0 0 0 0 0 0 0 0 0 0 0 0 0 0 0 0 0 0 0 0 0 0 0 0 0 0 0 0 0 0 0 0 0 0 0 0 0 0 0 0 0 0 0 0 0 0 0 0 0 0 0 0 0 0 0 0 0 0 0 0 0 0 0 0 0 0 0 0 0 0 0 0 0 0 0 0 0 0 0 0 0
-32.365033 90.221558 33.195490 -3.472314 -0.038317 3.080124 1.335696 -0.064192 -1.310855 1.243681 -0.009620 -0.907010 1.138619 0.129168 -0.481388 1.079577 0.162142 -0.116122 4.234398 5.089468 -0.128160 1.679335 -10.288335 3.205540 5.135904 -1.015910 10.845108 -13.569373 -1.005647 -5.764212 -14.264530 -4.369481 3.870606 21.580934 -0.138546 -26.001719 -21.039351 -2.553013 3.293858 -24.211073 -2.825368 3.861149 -67.822128 9.454801 -9.586849 -0.000007 0.000001 0.026848 -0.000007 0.000001 0.026848 0.000002 0.000001 0.021479 0.000003 0.000000 0.010740 -0.000010 -0.000012 9.739317 -0.000010 -0.000012 9.739317 0.000003 -0.000009 7.791454 -0.000002 -0.000003 3.895732 -0.000011 -0.000016 3.668950 -0.000011 -0.000016 3.668950 -0.000000 -0.000013 2.935161 0.000003 -0.000005 1.467579 -0.000010 -0.000039 -1.625987 -0.000010 -0.000039 -1.625987 -0.000013 -0.000031 -1.300788 -0.000002 -0.000016 -0.650397 -61.749463 -1.032223 -179.382834 -12.536614 1.338963 -9.140760 18.976894 4.179831 5.092127 5.986667 -2.387024 -1.279862 -6.327268 1.209983 35.063465 10.507635 -4.977120 3.386660 12.065032 -5.774215 3.815791 -59.720193 3.370858 14.189747 -0.000007 0.000013 -3.622097 -0.000007 0.000013 -3.622097 0.000004 0.000008 -2.897680 0.000003 0.000007 -1.448841 -0.000003 0.000017 11.228828 -0.000003 0.000017 11.228828 -0.000001 0.000008 8.983065 -0.000003 0.000007 4.491531 -0.000009 0.000001 10.540813 -0.000009 0.000001 10.540813 0.000001 -0.000003 8.432650 0.000002 0.000003 4.216322 -0.000004 0.000003 -8.554963 -0.000004 0.000003 -8.554963 -0.000001 0.000002 -6.843969 0.000006 0.000003 -3.421984 -21.039351 -2.553013 3.293858 4.246551 0.984472 1.312236 0.000000 3.217596 0.000000 0.180521 2.863521 1.670944 0.000000 -9.394593 0.000000 -1.986764 3.841090 -5.751756 0.000000 -0.989962 0.000000 -11.620586 -3.842513 3.322716 0.000000 -3.526380 0.000000
-32.367789 90.222064 33.201331 -3.465639 -0.037416 3.081567 1.338956 -0.072435 -1.316121 1.247411 -0.018318 -0.909470 1.138105 0.128571 -0.480593 1.079439 0.163529 -0.112547 4.236344 5.107900 -0.115295 1.683057 -10.281621 3.177767 5.124928 -1.027681 10.851884 -13.602853 -0.993517 -5.757330 -14.236570 -4.382061 3.854928 21.603235 -0.110337 -26.010115 -20.969473 -2.564239 3.359653 -24.131010 -2.836561 3.936816 -67.856424 9.411848 -9.626783 0.000007 0.000031 0.428700 0.000007 0.000031 0.428700 0.000003 0.000024 0.342961 0.000003 0.000013 0.171481 -0.000004 -0.000003 9.730896 -0.000004 -0.000003 9.730896 0.000008 -0.000001 7.784717 -0.000000 -0.000001 3.892359 0.000003 -0.000005 3.657094 0.000003 -0.000005 3.657094 -0.000002 -0.000004 2.925675 0.000002 -0.000001 1.462839 0.000002 -0.000011 -1.654490 0.000002 -0.000011 -1.654490 -0.000008 -0.000009 -1.323590 0.000000 -0.000005 -0.661795 -61.753513 -1.032180 -179.382811 -12.525498 1.345227 -9.142535 18.988265 4.105862 5.108577 5.982921 -2.398666 -1.328669 -6.355880 1.285487 35.126011 10.506499 -4.981422 3.387782 12.063694 -5.779173 3.817022 -59.682184 3.339114 14.226159 -0.000003 0.000001 -3.597418 -0.000003 0.000001 -3.597418 -0.000001 0.000004 -2.877934 0.000003 0.000003 -1.438967 -0.000002 0.000004 11.269613 -0.000002 0.000004 11.269613 0.000001 0.000003 9.015693 -0.000001 0.000003 4.507844 -0.000001 0.000002 10.632047 -0.000001 0.000002 10.632047 -0.000004 -0.000001 8.505641 0.000001 0.000000 4.252811 -0.000005 -0.000005 -8.713134 -0.000005 -0.000005 -8.713134 0.000000 -0.000006 -6.970507 -0.000000 0.000003 -3.485256 -20.969473 -2.564239 3.359653 4.259163 0.985421 1.313037 0.000000 3.218763 0.000000 0.165020 2.852834 1.649204 0.000000 -9.337694 0.000000 -1.968159 3.846172 -5.751895 0.000000 -0.986938 0.000000 -11.622996 -3.853629 3.334921 0.000000 -3.457108 0.000000
-32.371899 90.222186 33.206152 -3.454339 -0.037183 3.083676 1.333079 -0.091312 -1.324482 1.242572 -0.015034 -0.912485 1.144532 0.131497 -0.475171 1.085947 0.156260 -0.109911 4.248126 5.136970 -0.135686 1.685660 -10.304394 3.207392 5.101821 -1.034567 10.859454 -13.620601 -0.998981 -5.749535 -14.195298 -4.382818 3.825601 21.584556 -0.089014 -26.022670 -20.969473 -2.564239 3.359653 -24.131010 -2.836561 3.936816 -67.856424 9.411848 -9.626783 0.000007 0.000031 0.428700 0.000007 0.000031 0.428700 0.000003 0.000024 0.342961 0.000003 0.000013 0.171481 -0.000004 -0.000003 9.730896 -0.000004 -0.000003 9.730896 0.000008 -0.000001 7.784717 -0.000000 -0.000001 3.892359 0.000003 -0.000005 3.657094 0.000003 -0.000005 3.657094 -0.000002 -0.000004 2.925675 0.000002 -0.000001 1.462839 0.000002 -0.000011 -1.654490 0.000002 -0.000011 -1.654490 -0.000008 -0.000009 -1.323590 0.000000 -0.000005 -0.661795 -61.753513 -1.032180 -179.382811 -12.518652 1.344639 -9.145729 19.006411 4.144624 5.094937 5.997741 -2.438597 -1.315601 -6.399835 1.284049 35.157276 10.506499 -4.981422 3.387782 12.063694 -5.779173 3.817022 -59.682184 3.339114 14.226159 -0.000003 0.000001 -3.597418 -0.000003 0.000001 -3.597418 -0.000001 0.000004 -2.877934 0.000003 0.000003 -1.438967 -0.000002 0.000004 11.269613 -0.000002 0.000004 11.269613 0.000001 0.000003 9.015693 -0.000001 0.000003 4.507844 -0.000001 0.000002 10.632047 -0.000001 0.000002 10.632047 -0.000004 -0.000001 8.505641 0.000001 0.000000 4.252811 -0.000005 -0.000005 -8.713134 -0.000005 -0.000005 -8.713134 0.000000 -0.000006 -6.970507 -0.000000 0.000003 -3.485256 -20.969473 -2.564239 3.359653 4.247474 0.986422 1.311332 0.000000 3.219676 0.000000 0.174355 2.820447 1.662670 0.000000 -9.278042 0.000000 -1.955177 3.851297 -5.750395 0.000000 -0.989026 0.000000 -11.674033 -3.849467 3.345160 0.000000 -3.487200 0.000000
-32.375732 90.223260 33.212085 -3.439675 -0.038455 3.078409 1.332856 -0.097910 -1.323619 1.243363 -0.015538 -0.911511 1.141978 0.114594 -0.477862 1.084475 0.154165 -0.102432 4.260778 5.157768 -0.129224 1.693965 -10.275575 3.185208 5.089810 -1.016515 10.862420 -13.636649 -1.015318 -5.736244 -14.179662 -4.379237 3.804114 21.589441 -0.078156 -26.039073 -20.969473 -2.564239 3.359653 -24.131010 -2.836561 3.936816 -67.856424 9.411848 -9.626783 0.000007 0.000031 0.428700 0.000007 0.000031 0.428700 0.000003 0.000024 0.342961 0.000003 0.000013 0.171481 -0.000004 -0.000003 9.730896 -0.000004 -0.000003 9.730896 0.000008 -0.000001 7.784717 -0.000000 -0.000001 3.892359 0.000003 -0.000005 3.657094 0.000003 -0.000005 3.657094 -0.000002 -0.000004 2.925675 0.000002 -0.000001 1.462839 0.000002 -0.000011 -1.654490 0.000002 -0.000011 -1.654490 -0.000008 -0.000009 -1.323590 0.000000 -0.000005 -0.661795 -61.753513 -1.032180 -179.382811 -12.516251 1.358934 -9.155427 19.032750 4.091570 5.103646 5.993411 -2.416709 -1.337267 -6.430528 1.301406 35.204370 10.506499 -4.981422 3.387782 12.063694 -5.779173 3.817022 -59.682184 3.339114 14.226159 -0.000003 0.000001 -3.597418 -0.000003 0.000001 -3.597418 -0.000001 0.000004 -2.877934 0.000003 0.000003 -1.438967 -0.000002 0.000004 11.269613 -0.000002 0.000004 11.269613 0.000001 0.000003 9.015693 -0.000001 0.000003 4.507844 -0.000001 0.000002 10.632047 -0.000001 0.000002 10.632047 -0.000004 -0.000001 8.505641 0.000001 0.000000 4.252811 -0.000005 -0.000005 -8.713134 -0.000005 -0.000005 -8.713134 0.000000 -0.000006 -6.970507 -0.000000 0.000003 -3.485256 -20.969473 -2.564239 3.359653 4.259120 0.991374 1.319354 0.000000 3.215196 0.000000 0.135856 2.852255 1.680351 0.000000 -9.410286 0.000000 -1.958881 3.850878 -5.744810 0.000000 -0.968857 0.000000 -11.659876 -3.840881 3.354722 0.000000 -3.505604 0.000000
-32.378015 90.220447 33.217041 -3.434786 -0.038564 3.091796 1.333542 -0.108408 -1.342576 1.246212 -0.014102 -0.919121 1.147462 0.122357 -0.472850 1.089954 0.126355 -0.098856 4.257389 5.188658 -0.125310 1.694081 -10.281848 3.172524 5.069396 -1.013447 10.889959 -13.668337 -0.989031 -5.761060 -14.142066 -4.412883 3.827702 21.581796 -0.051272 -26.071528 -20.969473 -2.564239 3.359653 -24.131010 -2.836561 3.936816 -67.856424 9.411848 -9.626783 0.000007 0.000031 0.428700 0.000007 0.000031 0.428700 0.000003 0.000024 0.342961 0.000003 0.000013 0.171481 -0.000004 -0.000003 9.730896 -0.000004 -0.000003 9.730896 0.000008 -0.000001 7.784717 -0.000000 -0.000001 3.892359 0.000003 -0.000005 3.657094 0.000003 -0.000005 3.657094 -0.000002 -0.000004 2.925675 0.000002 -0.000001 1.462839 0.000002 -0.000011 -1.654490 0.000002 -0.000011 -1.654490 -0.000008 -0.000009 -1.323590 0.000000 -0.000005 -0.661795 -61.753513 -1.032180 -179.382811 -12.501349 1.360305 -9.162117 19.030403 4.073186 5.111089 5.994223 -2.380736 -1.349438 -6.453458 1.283641 35.248071 10.506499 -4.981422 3.387782 12.063694 -5.779173 3.817022 -59.682184 3.339114 14.226159 -0.000003 0.000001 -3.597418 -0.000003 0.000001 -3.597418 -0.000001 0.000004 -2.877934 0.000003 0.000003 -1.438967 -0.000002 0.000004 11.269613 -0.000002 0.000004 11.269613 0.000001 0.000003 9.015693 -0.000001 0.000003 4.507844 -0.000001 0.000002 10.632047 -0.000001 0.000002 10.632047 -0.000004 -0.000001 8.505641 0.000001 0.000000 4.252811 -0.000005 -0.000005 -8.713134 -0.000005 -0.000005 -8.713134 0.000000 -0.000006 -6.970507 -0.000000 0.000003 -3.485256 -20.969473 -2.564239 3.359653 4.267945 0.993462 1.306640 0.000000 3.220926 0.000000 0.143709 2.834488 1.688226 0.000000 -9.310119 0.000000 -1.928466 3.862348 -5.750640 0.000000 -0.975644 0.000000 -11.720705 -3.884273 3.320481 0.000000 -3.487537 0.000000
